<?xml version="1.0" encoding="utf-8"?>
<!-- Generator: Adobe Illustrator 19.0.0, SVG Export Plug-In . SVG Version: 6.00 Build 0)  -->
<svg version="1.1" id="Layer_1" xmlns="http://www.w3.org/2000/svg" xmlns:xlink="http://www.w3.org/1999/xlink" x="0px" y="0px"
	 viewBox="0 0 1817.2 693.2" style="enable-background:new 0 0 1817.2 693.2;" xml:space="preserve">
<style type="text/css">
	.st0{fill:#C8232C;}
	.st1{fill:#0E2346;}
	.st2{fill:#5B595A;}
</style>
<g id="XMLID_2_">
	<path id="XMLID_61_" class="st0" d="M421.7,431.8v21.5V431.8L421.7,431.8z"/>
	<path id="XMLID_56_" class="st0" d="M311.9,233.6c-60.7,0-109.9,49.2-109.9,109.9c0,60.7,49.2,109.9,109.9,109.9
		c25.8,0,49.4-8.9,68.1-23.7c0,0,5.8,17.2,38.3,23.1c0,0,0.1,0,0.1,0c0.5,0.1,1.1,0.2,1.6,0.3c0.5,0.1,1.1,0.2,1.6,0.3v-21.5
		l0.1-88.3C421.8,282.8,372.6,233.6,311.9,233.6z M312.1,411.3c-37.5,0-68-30.4-68-68c0-37.5,30.4-68,68-68c37.5,0,68,30.4,68,68
		C380.1,380.9,349.7,411.3,312.1,411.3z"/>
	<path id="XMLID_53_" class="st0" d="M506.5,327.2c-4.2-8.1-12.7-13.6-22.4-13.6h-21.8c-13.8-69.7-75.3-122.3-149.1-122.3
		c-83.9,0-152,68-152,152c0,83.9,68,152,152,152c24,0,46.6-5.5,66.8-15.4c0.2,1.1,0.5,2.1,0.9,3l0,0c0.4,0.8,0.8,1.5,1.4,2.2
		c0,0,0.1,0.1,0.1,0.1c3.9,5.5,13.7,14.8,36,18.9c0,0,0.1,0,0.1,0c0.5,0.1,1.1,0.2,1.6,0.3c0.4,0.1,0.7,0.1,1.1,0.2
		c-30.8,20.7-67.9,32.7-107.9,32.7c-107.1,0-194-86.8-194-194c0-107.1,86.8-194,194-194C415,149.4,498.4,227.7,506.5,327.2z"/>
	<path id="XMLID_44_" class="st0" d="M545.5,505.3c-66.1,0-77.6-46-79.6-60.6c-0.4-2.7-0.4-4.4-0.4-4.4v-56.7
		c0-20.1-22.6-25.3-22.6-25.3h39.2c14,0,25.3,11.4,25.3,25.3l0,16l0,40.9C511.8,493.7,545.5,505.3,545.5,505.3z"/>
	<path id="XMLID_40_" class="st0" d="M465.1,449.6c-0.2-0.8-0.4-1.6-0.4-2.4v-1.9C464.7,445.2,464.7,446.8,465.1,449.6z"/>
	<path id="XMLID_47_" class="st0" d="M463.1,426.1v1.2c0-0.2,0-0.4,0-0.6C463.1,426.5,463.1,426.3,463.1,426.1z"/>
	<rect id="XMLID_30_" x="325.5" y="437.1" class="st0" width="0" height="0"/>
</g>
<g id="XMLID_15_">
	<g id="XMLID_112_">
		<path id="XMLID_127_" class="st1" d="M710.5,345.3c10,6.5,11.4,20.9,2.6,28.9c-13.5,12.3-31.1,18.4-52.8,18.4
			c-22,0-40.6-7.3-55.9-22c-15.8-15-23.7-33.8-23.7-56.4c0-22.5,7.8-41.4,23.3-56.4c15-14.6,33.1-21.9,54.1-21.9
			c15.6,0,29.1,3.1,40.6,9.3c2.9,1.6,5.7,3.4,8.4,5.4c10.2,7.6,9.9,23-0.6,30.1l0,0c-6.7,4.5-15.5,4.2-21.8-0.9
			c-1.2-1-2.4-1.9-3.7-2.6c-6.1-3.8-13.5-5.7-22.3-5.7c-11.1,0-19.9,4.1-26.6,12.3c-6.4,7.9-9.7,18-9.7,30.4
			c0,12.3,3.3,22.4,10,30.4c7,8.3,16.1,12.5,27.6,12.5c9.2,0,16.9-2,22.9-6c1.5-1,2.9-2.2,4.3-3.4c6.3-6,15.7-7.2,23-2.5
			L710.5,345.3z"/>
		<path id="XMLID_125_" class="st1" d="M760.6,377.6c-12.6-10.8-18.9-26.2-18.9-46.1v-73.3c0-11.3,9.1-20.4,20.4-20.4h0.1
			c11.3,0,20.4,9.1,20.4,20.4v72.9c0,18.2,8.5,27.2,25.4,27.2c17,0,25.5-9.1,25.5-27.2v-72.9c0-11.3,9.1-20.4,20.4-20.4h0
			c11.3,0,20.4,9.1,20.4,20.4v73.3c0,19.9-6.3,35.3-18.8,46.1c-11.8,10.2-27.6,15.3-47.5,15.3C788.1,392.9,772.3,387.8,760.6,377.6z
			"/>
		<path id="XMLID_122_" class="st1" d="M916.4,370.7c-16.3-15.1-24.5-33.9-24.5-56.4c0-22.6,8.2-41.4,24.5-56.4
			c15.9-14.6,35.1-21.9,57.6-21.9c22.5,0,41.7,7.3,57.5,21.9c16.3,15,24.5,33.8,24.5,56.4c0,22.5-8.2,41.4-24.5,56.4
			c-15.9,14.6-35.1,22-57.5,22C951.5,392.7,932.3,385.3,916.4,370.7z M1003.7,344.7c7-7.8,10.5-18,10.5-30.4s-3.5-22.6-10.5-30.4
			c-7.3-8.2-17.2-12.3-29.6-12.3c-12.5,0-22.4,4.1-29.8,12.3c-7,7.8-10.5,18-10.5,30.4s3.5,22.6,10.5,30.4
			c7.3,8.3,17.2,12.5,29.8,12.5C986.5,357.2,996.3,353,1003.7,344.7z"/>
		<path id="XMLID_120_" class="st1" d="M1113.5,314.5v57c0,10.6-8.6,19.2-19.2,19.2h0c-10.6,0-19.2-8.6-19.2-19.2V235.7
			c0-2,1.1-2.2,3.2-0.4l96,79.2v-57.5c0-10.6,8.6-19.2,19.2-19.2h0c10.6,0,19.2,8.6,19.2,19.2v135.9c0,2-1,2.2-3.1,0.5L1113.5,314.5
			z"/>
		<path id="XMLID_118_" class="st1" d="M1344.3,339.2h-14.5c-8.7,0-15.8-7.1-15.8-15.8v0c0-8.7,7.1-15.8,15.8-15.8h41.5
			c5.3,0,9.6,4.3,9.6,9.6v47.3c0,4.6-2.2,8.9-5.9,11.5c-6.4,4.5-13,7.9-20,10.4c-11.4,4.1-25,6.1-40.6,6.1c-22.9,0-42.3-7.3-58.1-22
			c-16.2-14.9-24.3-33.7-24.3-56.4c0-22.6,8.1-41.4,24.2-56.4c15.7-14.6,34.7-21.9,57.2-21.9c17.4,0,32,3.8,44,11.4
			c10.3,6.5,11.4,21,2.3,28.9l-1.3,1.1c-6.3,5.5-15.4,5.6-22.3,1c-6.7-4.5-14.6-6.8-23.6-6.8c-12.1,0-21.6,4.1-28.7,12.3
			c-6.7,7.8-10,17.9-10,30.4c0,12.7,3.4,23,10.3,31.1c7.5,8.6,17.7,13,30.6,13c6.7,0,12.7-0.6,17.9-1.9c4-0.9,7.9-2.3,11.7-4.2
			V339.2z"/>
		<path id="XMLID_115_" class="st1" d="M1469,390.7h-25.9l74.4-155.6c0.3-0.8,0.7-1.2,1.3-1.2c0.6,0,1,0.4,1.3,1.2l74.2,155.6h-28
			c-8.7,0-16.6-5.1-20.1-13.1l0,0h-57.5l0,0C1485.4,385.5,1477.6,390.7,1469,390.7z M1517.1,311.5l-15.3,35.6h31L1517.1,311.5z"/>
		<path id="XMLID_113_" class="st1" d="M1646.9,314.5v57c0,10.6-8.6,19.2-19.2,19.2l0,0c-10.6,0-19.2-8.6-19.2-19.2V235.7
			c0-2,1.1-2.2,3.2-0.4l96,79.2v-57.5c0-10.6,8.6-19.2,19.2-19.2l0,0c10.6,0,19.2,8.6,19.2,19.2v135.9c0,2-1,2.2-3.1,0.5
			L1646.9,314.5z"/>
	</g>
	<g id="XMLID_76_">
		<g id="XMLID_356_">
			<path id="XMLID_108_" class="st2" d="M715.6,463.4c-0.4,4.7-2.4,8.6-6,11.8c-3.6,3.1-7.7,4.7-12.5,4.7c-5,0-9.4-1.7-13.1-5.2
				c-3.8-3.5-5.7-7.8-5.7-12.7c0-5,1.9-9.2,5.6-12.7c3.7-3.4,8-5.2,13.1-5.2c5.8,0,10.5,2.1,14.3,6.3c1,1.1,1.8,2.3,2.3,3.5h-4.1
				c-1.2-2.1-3-3.7-5.3-4.9c-2.3-1.2-4.6-1.8-7.1-1.8c-4.2,0-7.7,1.4-10.7,4.3c-3,2.9-4.5,6.4-4.5,10.5c0,4.1,1.5,7.6,4.6,10.5
				c3,2.8,6.6,4.2,10.8,4.2c3.2,0,6.1-1,8.8-2.9c2.8-2,4.6-4.4,5.4-7.4h-19.5v-3.1H715.6z"/>
			<path id="XMLID_353_" class="st2" d="M697.1,480.9c-5.3,0-9.9-1.8-13.8-5.5c-4-3.7-6-8.2-6-13.4c0-5.2,2-9.8,5.9-13.4
				c3.8-3.6,8.5-5.4,13.8-5.4c6,0,11.1,2.2,15,6.7c1.1,1.2,1.9,2.5,2.4,3.7l0.6,1.3H709l-0.3-0.5c-1.1-1.9-2.8-3.4-4.9-4.6
				c-2.1-1.1-4.3-1.6-6.7-1.6c-3.9,0-7.2,1.3-10.1,4c-2.8,2.7-4.2,5.9-4.2,9.8c0,3.9,1.4,7.1,4.3,9.8c2.8,2.6,6.2,4,10.2,4
				c2.9,0,5.7-0.9,8.2-2.7c2.2-1.5,3.7-3.4,4.6-5.6h-19.2v-5.1h25.8l-0.1,1.1c-0.4,4.9-2.5,9.1-6.3,12.4
				C706.5,479.2,702.1,480.9,697.1,480.9z M697,445.1c-4.8,0-9,1.6-12.4,4.9c-3.6,3.3-5.3,7.3-5.3,12c0,4.7,1.7,8.6,5.3,12
				c3.5,3.3,7.7,4.9,12.4,4.9c4.5,0,8.5-1.5,11.9-4.5c3.1-2.7,5-6.1,5.5-10.1h-21.7v1.2h19.8l-0.3,1.2c-0.8,3.2-2.8,5.8-5.7,7.9
				c-2.9,2-6,3-9.4,3c-4.4,0-8.3-1.5-11.5-4.5c-3.2-3-4.9-6.8-4.9-11.2c0-4.4,1.6-8.1,4.8-11.2c3.2-3,7-4.6,11.4-4.6
				c2.6,0,5.2,0.6,7.6,1.9c2.3,1.2,4.1,2.8,5.4,4.8h1.9c-0.4-0.6-0.8-1.2-1.4-1.8C707,447,702.6,445.1,697,445.1z"/>
		</g>
		<g id="XMLID_352_">
			<path id="XMLID_105_" class="st2" d="M776.6,463.2c-2,1.9-4.4,3-7.4,3.2l9.9,12.9h-4.4l-11.9-15.7l3.8,0c1.6,0,2.8-0.2,3.7-0.5
				c3.8-1.2,5.8-3.6,5.8-7.3c0-3.1-1.3-5.3-3.8-6.6c-1-0.5-2.1-0.9-3.3-1.1c-0.9-0.1-2.1-0.2-3.5-0.2h-6.1v31.4h-3.5v-34.6h8.9
				c0.8,0,1.5,0,2.1,0c0.8,0,1.6,0.1,2.2,0.2c1.7,0.2,3.1,0.6,4.2,1.1c4.2,2,6.2,5.3,6.2,9.9C779.6,458.8,778.6,461.2,776.6,463.2z"
				/>
			<path id="XMLID_107_" class="st2" d="M781.1,480.2h-6.9l-13.3-17.6l5.7,0c1.5,0,2.6-0.2,3.4-0.5c3.4-1,5.1-3.1,5.1-6.4
				c0-2.7-1.1-4.6-3.3-5.8c-0.9-0.5-1.9-0.8-3-1c-0.8-0.1-2-0.2-3.3-0.2h-5.1v31.4h-5.5v-36.5h9.9c0.8,0,1.5,0,2.2,0
				c0.8,0,1.6,0.1,2.3,0.2c1.8,0.2,3.4,0.6,4.5,1.2c4.5,2.1,6.8,5.8,6.8,10.7c0,3.2-1.1,5.9-3.3,8c-1.7,1.7-3.8,2.8-6.3,3.3
				L781.1,480.2z M775.2,478.3h1.9l-9.8-12.8l1.8-0.1c2.8-0.2,5-1.1,6.8-2.9l0,0c1.8-1.8,2.7-4,2.7-6.6c0-4.2-1.9-7.2-5.7-9
				c-1-0.5-2.3-0.8-3.9-1c-0.6-0.1-1.4-0.1-2.2-0.2c-0.6,0-1.3,0-2.1,0h-7.9v32.6h1.6v-31.4h7.1c1.5,0,2.7,0.1,3.7,0.2
				c1.3,0.2,2.5,0.6,3.6,1.2c2.9,1.5,4.3,4.1,4.3,7.5c0,4.1-2.2,7-6.5,8.3c-1,0.3-2.3,0.5-4,0.5l-1.9,0L775.2,478.3z"/>
		</g>
		<g id="XMLID_349_">
			<path id="XMLID_102_" class="st2" d="M845.2,479.3l-5.1-11.6h-16.2l-5.1,11.6h-3.6l14.9-34.6h3.9l15,34.6H845.2z M832.1,448.6
				l-6.9,15.9h13.6L832.1,448.6z"/>
			<path id="XMLID_344_" class="st2" d="M850.5,480.2h-5.9l-5.1-11.6h-15l-5.1,11.6h-5.8l15.8-36.5h5.2L850.5,480.2z M845.9,478.3
				h1.7l-14.2-32.6h-2.6l-14.1,32.6h1.5l5.1-11.6h17.5L845.9,478.3z M840.3,465.5h-16.5l8.3-19.3L840.3,465.5z M826.7,463.5h10.6
				l-5.3-12.4L826.7,463.5z"/>
		</g>
		<g id="XMLID_343_">
			<path id="XMLID_100_" class="st2" d="M906.8,463.3c-1.2,0.8-2.6,1.4-4.3,1.7c-0.7,0.1-1.5,0.2-2.3,0.3c-0.7,0-1.5,0.1-2.4,0.1
				h-6.2v13.9h-3.5v-34.6h9.7c0.9,0,1.7,0,2.4,0.1c0.8,0.1,1.6,0.2,2.3,0.3c1.7,0.3,3.1,0.9,4.3,1.7c2.9,1.9,4.3,4.7,4.3,8.3
				C911.2,458.6,909.7,461.4,906.8,463.3z M903.6,448.7c-0.9-0.4-1.9-0.7-2.9-0.8l-1.5-0.1h-7.6v14.4h7.6l1.5-0.1
				c1.1-0.1,2.1-0.4,2.9-0.8c2.7-1.3,4.1-3.4,4.1-6.3C907.7,452.1,906.3,450,903.6,448.7z"/>
			<path id="XMLID_261_" class="st2" d="M892.6,480.2h-5.5v-36.5h10.7c0.9,0,1.7,0,2.4,0.1c0.9,0.1,1.7,0.2,2.4,0.3
				c1.8,0.3,3.4,1,4.7,1.8c3.2,2.1,4.8,5.2,4.8,9.1c0,3.9-1.6,7-4.8,9.1l0,0c-1.3,0.9-2.9,1.5-4.7,1.8c-0.7,0.1-1.6,0.2-2.4,0.3
				c-0.7,0-1.5,0.1-2.4,0.1h-5.3V480.2z M889.1,478.3h1.6v-13.9h7.2c0.9,0,1.6,0,2.3-0.1c0.8-0.1,1.6-0.1,2.2-0.3
				c1.5-0.3,2.9-0.8,4-1.5c2.6-1.8,3.9-4.2,3.9-7.5c0-3.3-1.3-5.7-3.9-7.5c-1.1-0.7-2.4-1.2-4-1.5c-0.7-0.1-1.4-0.2-2.2-0.3
				c-0.7,0-1.4-0.1-2.3-0.1h-8.8V478.3z M891.6,463.2h-1v-16.3l10.2,0.1c1.2,0.1,2.3,0.4,3.3,0.9c3.1,1.4,4.6,3.8,4.6,7.2
				c0,3.3-1.6,5.8-4.6,7.2c-1,0.5-2.1,0.7-3.3,0.9l-1.5,0.1L891.6,463.2z M892.6,461.2l8.1-0.1c0.9-0.1,1.8-0.3,2.6-0.7
				c2.4-1.1,3.5-2.9,3.5-5.4c0-2.5-1.1-4.3-3.5-5.4l0,0c-0.8-0.4-1.6-0.6-2.6-0.7l-1.5-0.1l-6.6,0V461.2z"/>
		</g>
		<g id="XMLID_258_">
			<path id="XMLID_98_" class="st2" d="M972.7,479.3V463h-18.1v16.2h-3.5v-34.6h3.5v15.2h18.1v-15.2h3.5v34.6H972.7z"/>
			<path id="XMLID_255_" class="st2" d="M977.1,480.2h-5.4V464h-16.1v16.2h-5.5v-36.5h5.5v15.2h16.1v-15.2h5.4V480.2z M973.7,478.3
				h1.5v-32.6h-1.5v15.2h-20v-15.2h-1.6v32.6h1.6v-16.2h20V478.3z"/>
		</g>
		<g id="XMLID_254_">
			<path id="XMLID_96_" class="st2" d="M1018.3,479.3v-34.6h3.5v34.6H1018.3z"/>
			<path id="XMLID_251_" class="st2" d="M1022.8,480.2h-5.5v-36.5h5.5V480.2z M1019.3,478.3h1.6v-32.6h-1.6V478.3z"/>
		</g>
		<g id="XMLID_250_">
			<path id="XMLID_93_" class="st2" d="M1096.8,470.2c-3.6,6.4-8.9,9.7-16.1,9.7c-5,0-9.4-1.7-12.9-5.2c-3.6-3.5-5.4-7.7-5.4-12.7
				c0-5,1.8-9.3,5.3-12.7c3.5-3.4,7.8-5.2,12.9-5.2c5.5,0,10.1,2.1,13.8,6.2c1,1.1,1.8,2.2,2.2,3.3h-3.9c-2.9-4.2-6.9-6.3-12.2-6.3
				c-4,0-7.4,1.5-10.4,4.5c-2.9,2.9-4.3,6.4-4.3,10.3c0,3.9,1.5,7.3,4.4,10.2c3,3,6.4,4.4,10.3,4.4c2.4,0,4.7-0.6,6.9-1.8
				c2-1.1,3.8-2.7,5.3-4.7H1096.8z"/>
			<path id="XMLID_95_" class="st2" d="M1080.7,480.9c-5.3,0-9.9-1.8-13.6-5.5c-3.8-3.7-5.7-8.2-5.7-13.4c0-5.3,1.9-9.8,5.6-13.4
				c3.7-3.6,8.3-5.4,13.6-5.4c5.8,0,10.7,2.2,14.5,6.5c1.1,1.2,1.9,2.4,2.4,3.5l0.6,1.4h-5.9l-0.3-0.4c-2.7-4-6.4-5.9-11.4-5.9
				c-3.7,0-6.9,1.4-9.7,4.2c-2.7,2.8-4,5.9-4,9.7c0,3.7,1.3,6.8,4.1,9.6c2.8,2.8,5.9,4.1,9.7,4.1c2.3,0,4.4-0.6,6.4-1.7
				c1.9-1,3.6-2.6,5-4.5l0.3-0.4h6.1l-0.8,1.4C1094,477.4,1088.3,480.9,1080.7,480.9z M1080.7,445.1c-4.8,0-8.9,1.6-12.3,4.9
				c-3.3,3.2-5,7.3-5,12c0,4.7,1.7,8.7,5.1,12c3.4,3.3,7.5,4.9,12.2,4.9c6.3,0,11-2.5,14.4-7.7h-1.7c-1.6,2-3.3,3.5-5.3,4.6
				c-2.3,1.3-4.8,1.9-7.4,1.9c-4.2,0-7.9-1.6-11-4.7c-3.1-3.1-4.7-6.8-4.7-10.9c0-4.2,1.5-7.9,4.6-11c3.1-3.2,6.8-4.8,11.1-4.8
				c5.4,0,9.6,2.1,12.7,6.3h1.8c-0.4-0.5-0.8-1.1-1.3-1.7C1090.2,447,1086,445.1,1080.7,445.1z"/>
		</g>
		<g id="XMLID_246_">
			<path id="XMLID_91_" class="st2" d="M1207,476.4c-1.5,0.9-3.3,1.7-5.5,2.2c-1.9,0.4-3.9,0.7-5.9,0.7h-10.2v-34.6h10.2
				c2,0,4,0.2,5.9,0.7c2.2,0.5,4,1.2,5.5,2.2c5.3,3.3,7.9,8.2,7.9,14.5C1214.9,468.2,1212.3,473,1207,476.4z M1205.4,450.5
				c-1.6-1.1-3.4-1.8-5.5-2.2c-0.9-0.2-1.9-0.3-3-0.4c-0.9,0-1.9-0.1-3-0.1h-5.1v28.3h5.8c1.2,0,2.2,0,3-0.1c1-0.1,2-0.2,2.9-0.4
				c2-0.4,3.8-1.2,5.4-2.3c1.7-1.2,3.1-2.9,4.1-5.1c0.9-2,1.4-4.1,1.4-6.3C1211.4,457,1209.4,453.2,1205.4,450.5z"/>
			<path id="XMLID_240_" class="st2" d="M1195.6,480.2h-11.2v-36.5h11.2c2.1,0,4.1,0.2,6.1,0.7c2.2,0.5,4.2,1.3,5.8,2.3
				c5.6,3.5,8.4,8.7,8.4,15.4c0,6.5-2.8,11.6-8.4,15.2l0,0c-1.6,1-3.5,1.8-5.8,2.3C1199.7,480,1197.6,480.2,1195.6,480.2z
				 M1186.3,478.3h9.2c1.9,0,3.8-0.2,5.7-0.6c2-0.5,3.8-1.2,5.2-2.1c5-3.2,7.5-7.7,7.5-13.5c0-6-2.4-10.5-7.5-13.7
				c-1.4-0.9-3.2-1.6-5.2-2c-1.8-0.4-3.8-0.7-5.7-0.7h-9.2V478.3z M1194.7,477.1h-6.8v-30.3h6c1.2,0,2.2,0,3.1,0.1
				c1.1,0.1,2.2,0.2,3.1,0.4c2.2,0.4,4.2,1.2,5.9,2.4c4.2,2.9,6.4,7,6.4,12.3c0,2.4-0.5,4.6-1.5,6.8c-1.1,2.3-2.5,4.1-4.4,5.4
				c-1.7,1.2-3.6,2-5.7,2.5c-0.9,0.2-1.9,0.3-3,0.4C1196.9,477.1,1195.9,477.1,1194.7,477.1z M1189.8,475.2h4.8c1.1,0,2.1,0,3-0.1
				c1-0.1,1.9-0.2,2.7-0.4c1.9-0.4,3.5-1.1,5-2.2c1.6-1.1,2.9-2.7,3.8-4.7c0.9-1.9,1.3-3.9,1.3-5.9c0-4.6-1.8-8.1-5.5-10.6l0,0
				c-1.4-1-3.2-1.7-5.1-2.1c-0.9-0.2-1.8-0.3-2.8-0.4c-0.8,0-1.8-0.1-3-0.1h-4.1V475.2z"/>
		</g>
		<g id="XMLID_238_">
			<path id="XMLID_89_" class="st2" d="M1255.3,479.3v-34.6h19.1v3.1h-15.6v12.4h15.1v3.1h-15.1v12.8h15.6v3.1H1255.3z"/>
			<path id="XMLID_232_" class="st2" d="M1275.4,480.2h-21.1v-36.5h21.1v5.1h-15.6v10.5h15.1v5.1h-15.1v10.8h15.6V480.2z
				 M1256.3,478.3h17.2v-1.2h-15.6v-14.7h15.1v-1.2h-15.1v-14.4h15.6v-1.2h-17.2V478.3z"/>
		</g>
		<g id="XMLID_230_">
			<path id="XMLID_86_" class="st2" d="M1331.6,477c-2,1.9-4.5,2.9-7.4,2.9c-3.1,0-5.7-0.9-7.7-2.8c-2-1.9-3-4.4-3.1-7.5h3.5
				c0.2,4.8,2.6,7.1,7.3,7.1c2,0,3.6-0.7,5-2c1.4-1.3,2.1-3,2.1-4.9c0-2.1-0.8-3.8-2.5-5c-0.7-0.5-1.5-1-2.5-1.4
				c-0.8-0.3-1.7-0.6-2.8-1c-1.5-0.4-2.6-0.8-3.5-1.2c-1.2-0.5-2.1-1-2.9-1.6c-1.8-1.5-2.7-3.6-2.7-6.3c0-2.7,1-4.9,2.9-6.7
				c1.9-1.7,4.2-2.6,6.9-2.6c2.7,0,5,0.9,6.9,2.7c1.9,1.8,2.8,4.1,2.8,6.7h-3.5c0-1.7-0.6-3.2-1.8-4.4c-1.2-1.2-2.7-1.9-4.4-1.9
				c-1.8,0-3.3,0.6-4.5,1.7c-1.2,1.1-1.8,2.6-1.8,4.3c0,2,0.9,3.5,2.8,4.6c0.7,0.4,1.6,0.7,2.7,1.1l2.8,0.8c2.7,0.8,4.7,2,6.2,3.5
				c1.6,1.7,2.4,3.9,2.4,6.5C1334.7,472.6,1333.6,475,1331.6,477z"/>
			<path id="XMLID_219_" class="st2" d="M1324.1,480.9c-3.4,0-6.2-1-8.4-3.1c-2.2-2.1-3.3-4.8-3.4-8.2l0-1h5.4l0,0.9
				c0.2,4.2,2.2,6.2,6.3,6.2c1.7,0,3.1-0.6,4.3-1.7c1.2-1.2,1.8-2.5,1.8-4.2c0-1.8-0.7-3.2-2.1-4.2c-0.6-0.4-1.4-0.9-2.3-1.3
				c-0.7-0.3-1.6-0.6-2.7-0.9c-1.5-0.4-2.7-0.9-3.6-1.2c-1.2-0.5-2.3-1.1-3.1-1.8c-2-1.7-3-4-3-7c0-3,1.1-5.5,3.2-7.4
				c2.1-1.9,4.6-2.9,7.6-2.9c3,0,5.5,1,7.5,2.9c2.1,2,3.1,4.5,3.1,7.4v1h-5.5v-1c0-1.5-0.5-2.7-1.5-3.7c-1-1.1-2.2-1.6-3.7-1.6
				c-1.5,0-2.8,0.5-3.8,1.4c-1,1-1.5,2.1-1.5,3.6c0,1.7,0.7,2.9,2.3,3.7c0.6,0.3,1.5,0.7,2.5,1l2.8,0.8c2.8,0.8,5,2.1,6.6,3.8
				c1.8,1.9,2.7,4.3,2.7,7.1c0,3.1-1.2,5.8-3.4,7.9C1330,479.8,1327.3,480.9,1324.1,480.9z M1314.4,470.6c0.2,2.4,1.1,4.3,2.7,5.8
				c1.8,1.7,4.1,2.6,7,2.6c2.7,0,4.9-0.9,6.8-2.7l0,0c1.9-1.8,2.8-3.9,2.8-6.5c0-2.3-0.7-4.2-2.1-5.8c-1.3-1.4-3.2-2.5-5.7-3.3
				l-2.8-0.8c-1.2-0.4-2.1-0.8-2.9-1.2c-2.2-1.2-3.3-3.1-3.3-5.4c0-2,0.7-3.7,2.2-5c1.4-1.3,3.1-2,5.1-2c2,0,3.7,0.7,5.1,2.2
				c1.1,1.2,1.8,2.6,2,4.1h1.6c-0.2-2-1-3.6-2.5-5.1c-1.7-1.6-3.7-2.4-6.2-2.4c-2.5,0-4.6,0.8-6.3,2.3c-1.7,1.6-2.6,3.5-2.6,6
				c0,2.4,0.8,4.2,2.3,5.5c0.7,0.5,1.6,1,2.6,1.5c0.8,0.4,2,0.8,3.4,1.2c1.2,0.4,2.2,0.7,2.9,1c1.1,0.5,2,1,2.7,1.5
				c1.9,1.5,2.9,3.4,2.9,5.8c0,2.2-0.8,4.1-2.4,5.6c-1.5,1.5-3.4,2.2-5.6,2.2c-4.9,0-7.7-2.5-8.2-7.1H1314.4z"/>
		</g>
		<g id="XMLID_218_">
			<path id="XMLID_84_" class="st2" d="M1374.4,479.3v-34.6h3.5v34.6H1374.4z"/>
			<path id="XMLID_182_" class="st2" d="M1378.9,480.2h-5.5v-36.5h5.5V480.2z M1375.4,478.3h1.6v-32.6h-1.6V478.3z"/>
		</g>
		<g id="XMLID_181_">
			<path id="XMLID_82_" class="st2" d="M1455.6,463.4c-0.4,4.7-2.4,8.6-6,11.8c-3.6,3.1-7.7,4.7-12.5,4.7c-5,0-9.4-1.7-13.1-5.2
				c-3.8-3.5-5.7-7.8-5.7-12.7c0-5,1.9-9.2,5.6-12.7c3.7-3.4,8-5.2,13.1-5.2c5.8,0,10.5,2.1,14.3,6.3c1,1.1,1.8,2.3,2.3,3.5h-4.1
				c-1.2-2.1-3-3.7-5.3-4.9c-2.3-1.2-4.6-1.8-7.1-1.8c-4.2,0-7.7,1.4-10.7,4.3c-3,2.9-4.5,6.4-4.5,10.5c0,4.1,1.5,7.6,4.6,10.5
				c3,2.8,6.6,4.2,10.8,4.2c3.2,0,6.1-1,8.8-2.9c2.8-2,4.6-4.4,5.4-7.4h-19.5v-3.1H1455.6z"/>
			<path id="XMLID_172_" class="st2" d="M1437.1,480.9c-5.3,0-9.9-1.8-13.8-5.5c-4-3.7-6-8.2-6-13.4c0-5.2,2-9.8,5.9-13.4
				c3.8-3.6,8.5-5.4,13.8-5.4c6,0,11.1,2.2,15,6.7c1.1,1.2,1.9,2.5,2.4,3.7l0.6,1.3h-6.1l-0.3-0.5c-1.1-1.9-2.8-3.4-4.9-4.6
				c-2.1-1.1-4.3-1.6-6.7-1.6c-3.9,0-7.2,1.3-10.1,4c-2.8,2.7-4.2,5.9-4.2,9.8c0,3.9,1.4,7.1,4.3,9.8c2.9,2.7,6.2,4,10.2,4
				c2.9,0,5.7-0.9,8.2-2.7c2.2-1.5,3.7-3.4,4.6-5.6h-19.2v-5.1h25.8l-0.1,1.1c-0.4,4.9-2.5,9.1-6.3,12.4
				C1446.5,479.2,1442.1,480.9,1437.1,480.9z M1437,445.1c-4.8,0-9,1.6-12.4,4.9c-3.6,3.3-5.3,7.3-5.3,12c0,4.7,1.7,8.6,5.3,12
				c3.5,3.3,7.7,4.9,12.4,4.9c4.5,0,8.5-1.5,11.9-4.5c3.1-2.7,5-6.1,5.5-10.1h-21.7v1.2h19.8l-0.3,1.2c-0.8,3.2-2.8,5.8-5.7,7.9
				c-2.9,2-6,3-9.4,3c-4.4,0-8.3-1.5-11.5-4.5c-3.2-3-4.9-6.8-4.9-11.2c0-4.4,1.6-8.1,4.8-11.2c3.2-3,7-4.6,11.4-4.6
				c2.6,0,5.2,0.6,7.6,1.9c2.3,1.2,4.1,2.8,5.4,4.8h1.9c-0.4-0.6-0.8-1.2-1.4-1.8C1447,447,1442.6,445.1,1437,445.1z"/>
		</g>
		<g id="XMLID_169_">
			<path id="XMLID_80_" class="st2" d="M1520.5,479.3l-20.8-30.4h-0.1v30.4h-3.5v-34.6h4.7l19.5,28.7h0.1v-28.7h3.5v34.6H1520.5z"/>
			<path id="XMLID_166_" class="st2" d="M1525,480.2h-5l-19.4-28.4v28.4h-5.5v-36.5h6.2l18.1,26.6v-26.6h5.4V480.2z M1521,478.3h2
				v-32.6h-1.5v28.7h-1.5l-0.4-0.4l-19.2-28.3h-3.2v32.6h1.6v-30.4h1.5l0.4,0.4L1521,478.3z"/>
		</g>
		<g id="XMLID_163_">
			<path id="XMLID_77_" class="st2" d="M1565.9,479.3v-34.6h19.1v3.1h-15.6v12.4h15.1v3.1h-15.1v12.8h15.6v3.1H1565.9z"/>
			<path id="XMLID_159_" class="st2" d="M1586,480.2h-21.1v-36.5h21.1v5.1h-15.6v10.5h15.1v5.1h-15.1v10.8h15.6V480.2z
				 M1566.9,478.3h17.2v-1.2h-15.6v-14.7h15.1v-1.2h-15.1v-14.4h15.6v-1.2h-17.2V478.3z"/>
		</g>
		<g id="XMLID_155_">
			<path id="XMLID_74_" class="st2" d="M1646.9,463.2c-2,1.9-4.4,3-7.4,3.2l9.9,12.9h-4.4l-11.9-15.7l3.8,0c1.6,0,2.8-0.2,3.7-0.5
				c3.8-1.2,5.8-3.6,5.8-7.3c0-3.1-1.3-5.3-3.8-6.6c-1-0.5-2.1-0.9-3.3-1.1c-0.9-0.1-2.1-0.2-3.5-0.2h-6.1v31.4h-3.5v-34.6h8.9
				c0.8,0,1.5,0,2.1,0c0.8,0,1.6,0.1,2.2,0.2c1.7,0.2,3.1,0.6,4.2,1.1c4.2,2,6.2,5.3,6.2,9.9
				C1649.9,458.8,1648.9,461.2,1646.9,463.2z"/>
			<path id="XMLID_130_" class="st2" d="M1651.4,480.2h-6.9l-13.3-17.6l5.7,0c1.5,0,2.6-0.2,3.4-0.5c3.4-1,5.1-3.1,5.1-6.4
				c0-2.7-1.1-4.6-3.3-5.8c-0.9-0.5-1.9-0.8-3-1c-0.8-0.1-2-0.2-3.3-0.2h-5.1v31.4h-5.5v-36.5h9.9c0.8,0,1.5,0,2.2,0
				c0.8,0,1.6,0.1,2.3,0.2c1.8,0.2,3.4,0.6,4.6,1.2c4.5,2.1,6.8,5.8,6.8,10.7c0,3.2-1.1,5.9-3.3,8c-1.7,1.7-3.8,2.8-6.3,3.3
				L1651.4,480.2z M1645.5,478.3h1.9l-9.8-12.8l1.8-0.1c2.8-0.2,5-1.1,6.8-2.9l0,0c1.8-1.8,2.7-4,2.7-6.6c0-4.2-1.9-7.2-5.7-9
				c-1-0.5-2.3-0.8-3.9-1c-0.7-0.1-1.4-0.1-2.2-0.2c-0.6,0-1.3,0-2.1,0h-7.9v32.6h1.6v-31.4h7.1c1.5,0,2.7,0.1,3.7,0.2
				c1.3,0.2,2.5,0.6,3.6,1.2c2.9,1.5,4.3,4.1,4.3,7.5c0,4.1-2.2,7-6.5,8.3c-1,0.3-2.3,0.5-4,0.5l-1.9,0L1645.5,478.3z"/>
		</g>
	</g>
</g>
</svg>
