<?xml version="1.0" encoding="utf-8"?>
<!-- Generator: Adobe Illustrator 19.0.0, SVG Export Plug-In . SVG Version: 6.00 Build 0)  -->
<svg version="1.1" id="Layer_1" xmlns="http://www.w3.org/2000/svg" xmlns:xlink="http://www.w3.org/1999/xlink" x="0px" y="0px"
	 viewBox="-50 141.2 510.8 510.8" style="enable-background:new -50 141.2 510.8 510.8;" xml:space="preserve">
<style type="text/css">
	.st0{fill:#2B3489;}
	.st1{fill:#FFFFFF;}
</style>
<g id="XMLID_4_">
	<path id="XMLID_2_" class="st0" d="M394.5,392.5c0,104.4-84.7,189.1-189.1,189.1S16.3,497,16.3,392.5s84.6-189.1,189.1-189.1
		C309.8,203.5,394.5,288.2,394.5,392.5z"/>
	<path id="XMLID_1_" class="st1" d="M172,507.5V380.8h-23.5v-38.5H172v-9.4c0-14,1.5-24.2,4.5-31.2c3.1-7.1,8.8-13,17-17.5
		c8-4.4,18.3-6.6,30.4-6.6c12.3,0,24.5,1.9,36.2,5.6l2.2,0.7l-6.7,34.5l-2.6-0.6c-6.6-1.6-12.9-2.4-18.8-2.4
		c-5.3,0-9.1,1.2-11.3,3.5c-2.2,2.6-3.3,7.5-3.3,14.7v8.7h31.7v38.5h-31.7v126.7H172z"/>
</g>
</svg>
