<?xml version="1.0" encoding="utf-8"?>
<!-- Generator: Adobe Illustrator 19.0.0, SVG Export Plug-In . SVG Version: 6.00 Build 0)  -->
<svg version="1.1" id="Layer_1" xmlns="http://www.w3.org/2000/svg" xmlns:xlink="http://www.w3.org/1999/xlink" x="0px" y="0px"
	 viewBox="0 0 773.8 693.2" style="enable-background:new 0 0 773.8 693.2;" xml:space="preserve">
<style type="text/css">
	.st0{fill:#C8232C;}
	.st1{fill:#0E2346;}
	.st2{fill:#5B595A;}
</style>
<g id="XMLID_110_">
	<g id="XMLID_2_">
		<path id="XMLID_61_" class="st0" d="M499.7,343.4V365V343.4L499.7,343.4z"/>
		<path id="XMLID_56_" class="st0" d="M390,145.3c-60.7,0-109.9,49.2-109.9,109.9c0,60.7,49.2,109.9,109.9,109.9
			c25.8,0,49.4-8.9,68.1-23.7c0,0,5.8,17.2,38.3,23.1c0,0,0.1,0,0.1,0c0.5,0.1,1.1,0.2,1.6,0.3c0.5,0.1,1.1,0.2,1.6,0.3v-21.5
			l0.1-88.3C499.8,194.5,450.6,145.3,390,145.3z M390.1,323c-37.5,0-68-30.4-68-68c0-37.5,30.4-68,68-68c37.5,0,68,30.4,68,68
			C458.1,292.6,427.7,323,390.1,323z"/>
		<path id="XMLID_53_" class="st0" d="M584.6,238.9c-4.2-8.1-12.7-13.6-22.4-13.6h-21.8c-13.8-69.7-75.3-122.3-149.1-122.3
			c-83.9,0-152,68-152,152c0,83.9,68,152,152,152c24,0,46.6-5.5,66.8-15.4c0.2,1.1,0.5,2.1,0.9,3l0,0c0.4,0.8,0.8,1.5,1.4,2.2
			c0,0,0.1,0.1,0.1,0.1c3.9,5.5,13.7,14.8,36,18.9c0,0,0.1,0,0.1,0c0.5,0.1,1.1,0.2,1.6,0.3c0.4,0.1,0.7,0.1,1.1,0.2
			c-30.8,20.7-67.9,32.7-107.9,32.7c-107.1,0-194-86.8-194-194c0-107.1,86.8-194,194-194C493,61.1,576.4,139.3,584.6,238.9z"/>
		<path id="XMLID_44_" class="st0" d="M623.5,416.9c-66.1,0-77.6-46-79.6-60.6c-0.4-2.7-0.4-4.4-0.4-4.4v-56.7
			c0-20.1-22.6-25.3-22.6-25.3h39.2c14,0,25.3,11.4,25.3,25.3l0,16l0,40.9C589.8,405.3,623.5,416.9,623.5,416.9z"/>
		<path id="XMLID_40_" class="st0" d="M543.1,361.2c-0.2-0.8-0.4-1.6-0.4-2.4v-1.9C542.7,356.9,542.7,358.5,543.1,361.2z"/>
		<path id="XMLID_47_" class="st0" d="M541.1,337.8v1.2c0-0.2,0-0.4,0-0.6C541.1,338.2,541.1,338,541.1,337.8z"/>
		<rect id="XMLID_30_" x="403.5" y="348.7" class="st0" width="0" height="0"/>
	</g>
	<g id="XMLID_112_">
		<path id="XMLID_127_" class="st1" d="M157.8,562.7c5.2,3.3,5.9,10.7,1.3,14.8c-6.9,6.3-16,9.4-27.1,9.4
			c-11.3,0-20.8-3.8-28.6-11.3c-8.1-7.7-12.2-17.3-12.2-28.9c0-11.6,4-21.2,11.9-28.9c7.7-7.5,16.9-11.2,27.7-11.2
			c8,0,14.9,1.6,20.8,4.8c1.5,0.8,2.9,1.7,4.3,2.8c5.2,3.9,5.1,11.8-0.3,15.4h0c-3.4,2.3-8,2.2-11.2-0.4c-0.6-0.5-1.2-0.9-1.9-1.3
			c-3.1-2-6.9-2.9-11.4-2.9c-5.7,0-10.2,2.1-13.6,6.3c-3.3,4.1-5,9.2-5,15.6c0,6.3,1.7,11.5,5.1,15.6c3.6,4.3,8.3,6.4,14.1,6.4
			c4.7,0,8.6-1,11.8-3.1c0.8-0.5,1.5-1.1,2.2-1.8C149.2,560.9,154,560.2,157.8,562.7L157.8,562.7z"/>
		<path id="XMLID_125_" class="st1" d="M183.5,579.3c-6.5-5.6-9.7-13.4-9.7-23.6V518c0-5.8,4.7-10.5,10.5-10.5h0.1
			c5.8,0,10.5,4.7,10.5,10.5v37.4c0,9.3,4.3,14,13,14c8.7,0,13.1-4.7,13.1-14V518c0-5.8,4.7-10.5,10.5-10.5h0
			c5.8,0,10.5,4.7,10.5,10.5v37.6c0,10.2-3.2,18.1-9.6,23.6c-6,5.2-14.2,7.8-24.4,7.8C197.6,587.1,189.5,584.5,183.5,579.3z"/>
		<path id="XMLID_122_" class="st1" d="M263.4,575.7c-8.4-7.7-12.6-17.4-12.6-28.9c0-11.6,4.2-21.2,12.6-28.9
			c8.1-7.5,18-11.2,29.5-11.2c11.5,0,21.3,3.7,29.5,11.2c8.4,7.7,12.6,17.3,12.6,28.9c0,11.6-4.2,21.2-12.6,28.9
			c-8.1,7.5-18,11.3-29.5,11.3C281.3,587,271.5,583.2,263.4,575.7z M308.1,562.4c3.6-4,5.4-9.2,5.4-15.6s-1.8-11.6-5.4-15.6
			c-3.8-4.2-8.8-6.3-15.2-6.3c-6.4,0-11.5,2.1-15.3,6.3c-3.6,4-5.4,9.2-5.4,15.6s1.8,11.6,5.4,15.6c3.8,4.3,8.8,6.4,15.3,6.4
			C299.3,568.8,304.3,566.7,308.1,562.4z"/>
		<path id="XMLID_120_" class="st1" d="M364.4,546.9v29.2c0,5.4-4.4,9.8-9.8,9.8h0c-5.4,0-9.8-4.4-9.8-9.8v-69.6
			c0-1.1,0.5-1.1,1.6-0.2l49.2,40.6v-29.5c0-5.4,4.4-9.8,9.8-9.8l0,0c5.4,0,9.8,4.4,9.8,9.8v69.7c0,1.1-0.5,1.1-1.6,0.3L364.4,546.9
			z"/>
		<path id="XMLID_118_" class="st1" d="M482.7,559.6h-7.5c-4.5,0-8.1-3.6-8.1-8.1l0,0c0-4.5,3.6-8.1,8.1-8.1h21.2
			c2.7,0,4.9,2.2,4.9,4.9v24.3c0,2.3-1.1,4.6-3,5.9c-3.3,2.3-6.7,4.1-10.3,5.4c-5.9,2.1-12.8,3.2-20.8,3.2
			c-11.7,0-21.7-3.8-29.8-11.3c-8.3-7.7-12.4-17.3-12.4-28.9c0-11.6,4.1-21.2,12.4-28.9c8-7.5,17.8-11.2,29.3-11.2
			c8.9,0,16.4,1.9,22.6,5.8c5.3,3.3,5.9,10.7,1.2,14.8l-0.7,0.6c-3.2,2.8-7.9,2.9-11.4,0.5c-3.4-2.3-7.5-3.5-12.1-3.5
			c-6.2,0-11.1,2.1-14.7,6.3c-3.4,4-5.1,9.2-5.1,15.6c0,6.5,1.8,11.8,5.3,15.9c3.8,4.4,9.1,6.6,15.7,6.6c3.5,0,6.5-0.3,9.2-1
			c2-0.5,4-1.2,6-2.1V559.6z"/>
		<path id="XMLID_115_" class="st1" d="M546.6,586h-13.3l38.2-79.7c0.2-0.4,0.4-0.6,0.7-0.6c0.3,0,0.5,0.2,0.7,0.6l38,79.7h-14.3
			c-4.5,0-8.5-2.6-10.3-6.7l0,0h-29.5l0,0C555,583.3,551,586,546.6,586z M571.3,545.4l-7.8,18.2h15.9L571.3,545.4z"/>
		<path id="XMLID_113_" class="st1" d="M637.8,546.9v29.2c0,5.4-4.4,9.8-9.8,9.8l0,0c-5.4,0-9.8-4.4-9.8-9.8v-69.6
			c0-1.1,0.5-1.1,1.6-0.2l49.2,40.6v-29.5c0-5.4,4.4-9.8,9.8-9.8l0,0c5.4,0,9.8,4.4,9.8,9.8v69.7c0,1.1-0.5,1.1-1.6,0.3L637.8,546.9
			z"/>
	</g>
	<g id="XMLID_76_">
		<g id="XMLID_356_">
			<path id="XMLID_108_" class="st2" d="M160.4,623.2c-0.2,2.4-1.2,4.4-3.1,6c-1.8,1.6-4,2.4-6.4,2.4c-2.6,0-4.8-0.9-6.7-2.7
				c-1.9-1.8-2.9-4-2.9-6.5c0-2.6,1-4.7,2.9-6.5c1.9-1.8,4.1-2.6,6.7-2.6c3,0,5.4,1.1,7.3,3.3c0.5,0.6,0.9,1.2,1.2,1.8h-2.1
				c-0.6-1.1-1.5-1.9-2.7-2.5c-1.2-0.6-2.4-0.9-3.6-0.9c-2.1,0-4,0.7-5.5,2.2c-1.5,1.5-2.3,3.3-2.3,5.4c0,2.1,0.8,3.9,2.3,5.4
				c1.5,1.4,3.4,2.2,5.5,2.2c1.6,0,3.1-0.5,4.5-1.5c1.4-1,2.4-2.3,2.7-3.8h-10v-1.6H160.4z"/>
			<path id="XMLID_353_" class="st2" d="M150.9,632.2c-2.7,0-5.1-0.9-7.1-2.8c-2-1.9-3.1-4.2-3.1-6.9c0-2.7,1-5,3-6.9
				c2-1.8,4.3-2.8,7.1-2.8c3.1,0,5.7,1.2,7.7,3.4c0.6,0.6,1,1.3,1.2,1.9l0.3,0.7H157l-0.1-0.2c-0.6-1-1.4-1.8-2.5-2.3
				c-1.1-0.6-2.2-0.8-3.4-0.8c-2,0-3.7,0.7-5.2,2.1c-1.5,1.4-2.2,3-2.2,5c0,2,0.7,3.6,2.2,5c1.4,1.3,3.2,2,5.2,2
				c1.5,0,2.9-0.5,4.2-1.4c1.1-0.8,1.9-1.8,2.3-2.9h-9.8v-2.6H161l0,0.5c-0.2,2.5-1.3,4.7-3.2,6.4
				C155.8,631.3,153.5,632.2,150.9,632.2z M150.9,613.8c-2.5,0-4.6,0.8-6.4,2.5c-1.8,1.7-2.7,3.7-2.7,6.2c0,2.4,0.9,4.4,2.7,6.1
				c1.8,1.7,3.9,2.5,6.4,2.5c2.3,0,4.4-0.8,6.1-2.3c1.6-1.4,2.5-3.1,2.8-5.2h-11.1v0.6h10.2l-0.2,0.6c-0.4,1.6-1.4,3-2.9,4.1
				c-1.5,1-3.1,1.6-4.8,1.6c-2.3,0-4.3-0.8-5.9-2.3c-1.7-1.6-2.5-3.5-2.5-5.7c0-2.2,0.8-4.2,2.5-5.7c1.6-1.6,3.6-2.3,5.8-2.3
				c1.3,0,2.6,0.3,3.9,1c1.2,0.6,2.1,1.5,2.8,2.5h1c-0.2-0.3-0.4-0.6-0.7-0.9C156,614.8,153.8,613.8,150.9,613.8z"/>
		</g>
		<g id="XMLID_352_">
			<path id="XMLID_105_" class="st2" d="M191.7,623.1c-1,1-2.3,1.5-3.8,1.6l5.1,6.6h-2.3l-6.1-8l1.9,0c0.8,0,1.5-0.1,1.9-0.3
				c2-0.6,3-1.8,3-3.8c0-1.6-0.7-2.7-2-3.4c-0.5-0.3-1.1-0.5-1.7-0.6c-0.5-0.1-1.1-0.1-1.8-0.1h-3.1v16.1h-1.8v-17.7h4.6
				c0.4,0,0.8,0,1.1,0c0.4,0,0.8,0.1,1.1,0.1c0.9,0.1,1.6,0.3,2.2,0.6c2.1,1,3.2,2.7,3.2,5.1C193.3,620.9,192.8,622.1,191.7,623.1z"
				/>
			<path id="XMLID_107_" class="st2" d="M194,631.9h-3.5l-6.8-9l2.9,0c0.8,0,1.3-0.1,1.8-0.2c1.8-0.5,2.6-1.6,2.6-3.3
				c0-1.4-0.6-2.3-1.7-3c-0.5-0.2-1-0.4-1.5-0.5c-0.4-0.1-1-0.1-1.7-0.1h-2.6v16.1h-2.8v-18.7h5.1c0.4,0,0.8,0,1.1,0
				c0.4,0,0.8,0.1,1.2,0.1c0.9,0.1,1.7,0.3,2.3,0.6c2.3,1.1,3.5,3,3.5,5.5c0,1.6-0.6,3-1.7,4.1c-0.9,0.9-2,1.4-3.2,1.7L194,631.9z
				 M191,630.9h1l-5-6.5l0.9-0.1c1.4-0.1,2.5-0.6,3.5-1.5l0,0c0.9-0.9,1.4-2,1.4-3.4c0-2.2-1-3.7-2.9-4.6c-0.5-0.2-1.2-0.4-2-0.5
				c-0.3,0-0.7-0.1-1.1-0.1c-0.3,0-0.7,0-1.1,0h-4.1v16.7h0.8v-16.1h3.6c0.8,0,1.4,0,1.9,0.1c0.7,0.1,1.3,0.3,1.9,0.6
				c1.5,0.8,2.2,2.1,2.2,3.8c0,2.1-1.1,3.6-3.3,4.2c-0.5,0.2-1.2,0.3-2,0.3l-1,0L191,630.9z"/>
		</g>
		<g id="XMLID_349_">
			<path id="XMLID_102_" class="st2" d="M226.9,631.4l-2.6-6H216l-2.6,6h-1.9l7.7-17.7h2l7.7,17.7H226.9z M220.1,615.7l-3.5,8.1h7
				L220.1,615.7z"/>
			<path id="XMLID_344_" class="st2" d="M229.6,631.9h-3l-2.6-6h-7.7l-2.6,6h-3l8.1-18.7h2.7L229.6,631.9z M227.2,630.9h0.9
				l-7.3-16.7h-1.4l-7.2,16.7h0.8l2.6-6h9L227.2,630.9z M224.3,624.3h-8.5l4.3-9.9L224.3,624.3z M217.4,623.3h5.4l-2.7-6.4
				L217.4,623.3z"/>
		</g>
		<g id="XMLID_343_">
			<path id="XMLID_100_" class="st2" d="M258.5,623.2c-0.6,0.4-1.4,0.7-2.2,0.9c-0.4,0.1-0.8,0.1-1.2,0.1c-0.3,0-0.7,0-1.2,0h-3.2
				v7.1h-1.8v-17.7h5c0.5,0,0.9,0,1.2,0c0.4,0,0.8,0.1,1.2,0.1c0.9,0.2,1.6,0.5,2.2,0.9c1.5,1,2.2,2.4,2.2,4.3
				S260,622.2,258.5,623.2z M256.8,615.7c-0.4-0.2-1-0.4-1.5-0.4l-0.8,0h-3.9v7.4h3.9l0.8,0c0.6-0.1,1.1-0.2,1.5-0.4
				c1.4-0.7,2.1-1.7,2.1-3.2S258.2,616.4,256.8,615.7z"/>
			<path id="XMLID_261_" class="st2" d="M251.2,631.9h-2.8v-18.7h5.5c0.5,0,0.9,0,1.2,0c0.5,0,0.9,0.1,1.2,0.1
				c0.9,0.2,1.7,0.5,2.4,0.9c1.6,1.1,2.4,2.7,2.4,4.7c0,2-0.8,3.6-2.4,4.7l0,0c-0.7,0.5-1.5,0.8-2.4,0.9c-0.4,0.1-0.8,0.1-1.2,0.1
				c-0.4,0-0.8,0-1.2,0h-2.7V631.9z M249.4,630.9h0.8v-7.1h3.7c0.4,0,0.8,0,1.2,0c0.4,0,0.8-0.1,1.1-0.1c0.8-0.1,1.5-0.4,2-0.8
				c1.3-0.9,2-2.2,2-3.9c0-1.7-0.7-2.9-2-3.8c-0.6-0.4-1.2-0.6-2-0.8c-0.3-0.1-0.7-0.1-1.1-0.1c-0.3,0-0.7,0-1.2,0h-4.5V630.9z
				 M250.7,623.1h-0.5v-8.4l5.2,0c0.6,0.1,1.2,0.2,1.7,0.5c1.6,0.7,2.4,2,2.4,3.7c0,1.7-0.8,3-2.4,3.7c-0.5,0.2-1.1,0.4-1.7,0.4
				l-0.8,0L250.7,623.1z M251.2,622.1l4.1,0c0.5,0,0.9-0.2,1.3-0.4c1.2-0.6,1.8-1.5,1.8-2.8c0-1.3-0.6-2.2-1.8-2.8l0,0
				c-0.4-0.2-0.8-0.3-1.3-0.4l-0.7,0l-3.4,0V622.1z"/>
		</g>
		<g id="XMLID_258_">
			<path id="XMLID_98_" class="st2" d="M292.2,631.4V623h-9.3v8.3h-1.8v-17.7h1.8v7.8h9.3v-7.8h1.8v17.7H292.2z"/>
			<path id="XMLID_255_" class="st2" d="M294.5,631.9h-2.8v-8.3h-8.3v8.3h-2.8v-18.7h2.8v7.8h8.3v-7.8h2.8V631.9z M292.7,630.9h0.8
				v-16.7h-0.8v7.8h-10.3v-7.8h-0.8v16.7h0.8v-8.3h10.3V630.9z"/>
		</g>
		<g id="XMLID_254_">
			<path id="XMLID_96_" class="st2" d="M315.6,631.4v-17.7h1.8v17.7H315.6z"/>
			<path id="XMLID_251_" class="st2" d="M317.9,631.9h-2.8v-18.7h2.8V631.9z M316.1,630.9h0.8v-16.7h-0.8V630.9z"/>
		</g>
		<g id="XMLID_250_">
			<path id="XMLID_93_" class="st2" d="M355.9,626.7c-1.8,3.3-4.6,5-8.3,5c-2.6,0-4.8-0.9-6.6-2.7c-1.8-1.8-2.8-4-2.8-6.5
				c0-2.6,0.9-4.8,2.7-6.5c1.8-1.8,4-2.6,6.6-2.6c2.8,0,5.2,1.1,7.1,3.2c0.5,0.6,0.9,1.1,1.1,1.7h-2c-1.5-2.2-3.5-3.2-6.2-3.2
				c-2,0-3.8,0.8-5.3,2.3c-1.5,1.5-2.2,3.3-2.2,5.3c0,2,0.8,3.7,2.3,5.3c1.5,1.5,3.3,2.3,5.3,2.3c1.3,0,2.4-0.3,3.5-0.9
				c1-0.6,1.9-1.4,2.7-2.4H355.9z"/>
			<path id="XMLID_95_" class="st2" d="M347.6,632.2c-2.7,0-5.1-0.9-7-2.8c-1.9-1.9-2.9-4.2-2.9-6.9c0-2.7,1-5,2.9-6.9
				c1.9-1.8,4.2-2.8,7-2.8c3,0,5.5,1.1,7.4,3.3c0.6,0.6,1,1.2,1.2,1.8l0.3,0.7h-3l-0.1-0.2c-1.4-2-3.3-3-5.8-3c-1.9,0-3.5,0.7-5,2.1
				c-1.4,1.4-2.1,3-2.1,4.9c0,1.9,0.7,3.5,2.1,4.9c1.4,1.4,3,2.1,4.9,2.1c1.2,0,2.3-0.3,3.3-0.9c1-0.5,1.8-1.3,2.6-2.3l0.1-0.2h3.1
				l-0.4,0.7C354.4,630.4,351.5,632.2,347.6,632.2z M347.6,613.9c-2.5,0-4.6,0.8-6.3,2.5c-1.7,1.7-2.6,3.7-2.6,6.2
				c0,2.4,0.9,4.5,2.6,6.1c1.7,1.7,3.8,2.5,6.3,2.5c3.2,0,5.7-1.3,7.4-4h-0.9c-0.8,1-1.7,1.8-2.7,2.4c-1.2,0.6-2.4,1-3.8,1
				c-2.1,0-4-0.8-5.7-2.4c-1.6-1.6-2.4-3.5-2.4-5.6c0-2.2,0.8-4.1,2.4-5.6c1.6-1.6,3.5-2.4,5.7-2.4c2.8,0,4.9,1.1,6.5,3.2h0.9
				c-0.2-0.3-0.4-0.6-0.7-0.8C352.5,614.8,350.3,613.9,347.6,613.9z"/>
		</g>
		<g id="XMLID_246_">
			<path id="XMLID_91_" class="st2" d="M412.3,629.9c-0.8,0.5-1.7,0.9-2.8,1.1c-1,0.2-2,0.3-3,0.3h-5.2v-17.7h5.2c1,0,2,0.1,3,0.4
				c1.1,0.3,2,0.6,2.8,1.1c2.7,1.7,4.1,4.2,4.1,7.4C416.4,625.7,415,628.2,412.3,629.9z M411.5,616.6c-0.8-0.6-1.7-0.9-2.8-1.1
				c-0.5-0.1-1-0.1-1.5-0.2c-0.4,0-1,0-1.6,0H403v14.5h3c0.6,0,1.1,0,1.5,0c0.5,0,1-0.1,1.5-0.2c1-0.2,1.9-0.6,2.8-1.2
				c0.9-0.6,1.6-1.5,2.1-2.6c0.5-1,0.7-2.1,0.7-3.3C414.6,619.9,413.6,618,411.5,616.6z"/>
			<path id="XMLID_240_" class="st2" d="M406.5,631.9h-5.7v-18.7h5.7c1.1,0,2.1,0.1,3.1,0.4c1.2,0.3,2.2,0.7,3,1.2
				c2.9,1.8,4.3,4.5,4.3,7.9c0,3.3-1.4,5.9-4.3,7.8l0,0c-0.8,0.5-1.8,0.9-3,1.2C408.6,631.7,407.5,631.9,406.5,631.9z M401.7,630.9
				h4.7c1,0,2-0.1,2.9-0.3c1-0.3,1.9-0.6,2.7-1.1c2.6-1.7,3.8-3.9,3.8-6.9c0-3.1-1.3-5.4-3.8-7c-0.7-0.5-1.6-0.8-2.7-1
				c-0.9-0.2-1.9-0.3-2.9-0.3h-4.7V630.9z M406,630.3h-3.5v-15.5h3.1c0.6,0,1.1,0,1.6,0c0.6,0,1.1,0.1,1.6,0.2
				c1.2,0.2,2.2,0.6,3,1.2c2.2,1.5,3.3,3.6,3.3,6.3c0,1.2-0.3,2.4-0.8,3.5c-0.5,1.2-1.3,2.1-2.3,2.8c-0.9,0.6-1.9,1-2.9,1.3
				c-0.5,0.1-1,0.2-1.5,0.2C407.1,630.2,406.6,630.3,406,630.3z M403.5,629.3h2.5c0.6,0,1.1,0,1.5,0c0.5,0,1-0.1,1.4-0.2
				c1-0.2,1.8-0.6,2.6-1.1c0.8-0.6,1.5-1.4,1.9-2.4c0.4-1,0.7-2,0.7-3c0-2.4-0.9-4.2-2.8-5.5l0,0c-0.7-0.5-1.6-0.9-2.6-1.1
				c-0.4-0.1-0.9-0.1-1.5-0.2c-0.4,0-0.9,0-1.5,0h-2.1V629.3z"/>
		</g>
		<g id="XMLID_238_">
			<path id="XMLID_89_" class="st2" d="M437.1,631.4v-17.7h9.8v1.6h-8v6.4h7.7v1.6h-7.7v6.5h8v1.6H437.1z"/>
			<path id="XMLID_232_" class="st2" d="M447.4,631.9h-10.8v-18.7h10.8v2.6h-8v5.4h7.7v2.6h-7.7v5.5h8V631.9z M437.6,630.9h8.8v-0.6
				h-8v-7.5h7.7v-0.6h-7.7v-7.4h8v-0.6h-8.8V630.9z"/>
		</g>
		<g id="XMLID_230_">
			<path id="XMLID_86_" class="st2" d="M476.2,630.2c-1,1-2.3,1.5-3.8,1.5c-1.6,0-2.9-0.5-3.9-1.5c-1-1-1.6-2.2-1.6-3.8h1.8
				c0.1,2.4,1.3,3.7,3.7,3.7c1,0,1.8-0.3,2.5-1c0.7-0.7,1.1-1.5,1.1-2.5c0-1.1-0.4-1.9-1.3-2.6c-0.3-0.3-0.8-0.5-1.3-0.7
				c-0.4-0.2-0.9-0.3-1.5-0.5c-0.7-0.2-1.3-0.4-1.8-0.6c-0.6-0.2-1.1-0.5-1.5-0.8c-0.9-0.7-1.4-1.8-1.4-3.2c0-1.4,0.5-2.5,1.5-3.4
				c1-0.9,2.2-1.3,3.6-1.3c1.4,0,2.6,0.5,3.5,1.4c1,0.9,1.5,2.1,1.5,3.5h-1.8c0-0.9-0.3-1.6-0.9-2.3c-0.6-0.6-1.4-1-2.2-1
				c-0.9,0-1.7,0.3-2.3,0.9c-0.6,0.6-0.9,1.3-0.9,2.2c0,1,0.5,1.8,1.4,2.4c0.4,0.2,0.8,0.4,1.4,0.6l1.4,0.4c1.4,0.4,2.4,1,3.2,1.8
				c0.8,0.9,1.2,2,1.2,3.3C477.8,627.9,477.2,629.2,476.2,630.2z"/>
			<path id="XMLID_219_" class="st2" d="M472.3,632.2c-1.7,0-3.2-0.5-4.3-1.6c-1.1-1.1-1.7-2.5-1.7-4.2l0-0.5h2.8l0,0.5
				c0.1,2.2,1.1,3.2,3.2,3.2c0.9,0,1.6-0.3,2.2-0.9c0.6-0.6,0.9-1.3,0.9-2.2c0-0.9-0.4-1.6-1.1-2.2c-0.3-0.2-0.7-0.4-1.2-0.6
				c-0.4-0.1-0.8-0.3-1.4-0.5c-0.8-0.2-1.4-0.4-1.9-0.6c-0.6-0.3-1.2-0.6-1.6-0.9c-1-0.8-1.6-2.1-1.6-3.6c0-1.5,0.6-2.8,1.6-3.8
				c1.1-1,2.4-1.5,3.9-1.5c1.5,0,2.8,0.5,3.9,1.5c1.1,1,1.6,2.3,1.6,3.8v0.5H475v-0.5c0-0.7-0.3-1.4-0.8-1.9
				c-0.5-0.5-1.1-0.8-1.9-0.8c-0.8,0-1.4,0.2-2,0.7c-0.5,0.5-0.8,1.1-0.8,1.8c0,0.9,0.4,1.5,1.2,1.9c0.3,0.2,0.8,0.4,1.3,0.5
				l1.4,0.4c1.4,0.4,2.6,1.1,3.4,2c0.9,1,1.4,2.2,1.4,3.6c0,1.6-0.6,3-1.8,4.1C475.4,631.6,474,632.2,472.3,632.2z M467.4,626.9
				c0.1,1.2,0.6,2.2,1.4,3c0.9,0.9,2.1,1.3,3.6,1.3c1.4,0,2.5-0.4,3.5-1.4l0,0c1-0.9,1.4-2,1.4-3.3c0-1.2-0.4-2.2-1.1-3
				c-0.7-0.7-1.7-1.3-2.9-1.7l-1.4-0.4c-0.6-0.2-1.1-0.4-1.5-0.6c-1.1-0.6-1.7-1.6-1.7-2.8c0-1,0.4-1.9,1.1-2.6c0.7-0.7,1.6-1,2.6-1
				c1,0,1.9,0.4,2.6,1.1c0.6,0.6,0.9,1.3,1,2.1h0.8c-0.1-1-0.5-1.9-1.3-2.6c-0.9-0.8-1.9-1.2-3.2-1.2c-1.3,0-2.3,0.4-3.2,1.2
				c-0.9,0.8-1.3,1.8-1.3,3.1c0,1.2,0.4,2.2,1.2,2.8c0.3,0.3,0.8,0.5,1.4,0.8c0.4,0.2,1,0.4,1.7,0.6c0.6,0.2,1.1,0.3,1.5,0.5
				c0.6,0.2,1,0.5,1.4,0.8c1,0.7,1.5,1.7,1.5,3c0,1.1-0.4,2.1-1.2,2.9c-0.8,0.8-1.8,1.1-2.9,1.1c-2.5,0-3.9-1.3-4.2-3.7H467.4z"/>
		</g>
		<g id="XMLID_218_">
			<path id="XMLID_84_" class="st2" d="M498.1,631.4v-17.7h1.8v17.7H498.1z"/>
			<path id="XMLID_182_" class="st2" d="M500.4,631.9h-2.8v-18.7h2.8V631.9z M498.6,630.9h0.8v-16.7h-0.8V630.9z"/>
		</g>
		<g id="XMLID_181_">
			<path id="XMLID_82_" class="st2" d="M539.7,623.2c-0.2,2.4-1.2,4.4-3.1,6c-1.8,1.6-4,2.4-6.4,2.4c-2.6,0-4.8-0.9-6.7-2.7
				c-1.9-1.8-2.9-4-2.9-6.5c0-2.6,1-4.7,2.9-6.5c1.9-1.8,4.1-2.6,6.7-2.6c3,0,5.4,1.1,7.3,3.3c0.5,0.6,0.9,1.2,1.2,1.8h-2.1
				c-0.6-1.1-1.5-1.9-2.7-2.5c-1.2-0.6-2.4-0.9-3.6-0.9c-2.1,0-4,0.7-5.5,2.2c-1.5,1.5-2.3,3.3-2.3,5.4c0,2.1,0.8,3.9,2.3,5.4
				c1.5,1.4,3.4,2.2,5.5,2.2c1.6,0,3.1-0.5,4.5-1.5c1.4-1,2.4-2.3,2.7-3.8h-10v-1.6H539.7z"/>
			<path id="XMLID_172_" class="st2" d="M530.2,632.2c-2.7,0-5.1-0.9-7.1-2.8c-2-1.9-3.1-4.2-3.1-6.9c0-2.7,1-5,3-6.9
				c2-1.8,4.3-2.8,7.1-2.8c3.1,0,5.7,1.2,7.7,3.4c0.6,0.6,1,1.3,1.2,1.9l0.3,0.7h-3.1l-0.1-0.2c-0.6-1-1.4-1.8-2.5-2.3
				c-1.1-0.6-2.2-0.8-3.4-0.8c-2,0-3.7,0.7-5.2,2.1c-1.5,1.4-2.2,3-2.2,5c0,2,0.7,3.6,2.2,5c1.5,1.4,3.2,2,5.2,2
				c1.5,0,2.9-0.5,4.2-1.4c1.1-0.8,1.9-1.8,2.3-2.9h-9.8v-2.6h13.2l0,0.5c-0.2,2.5-1.3,4.7-3.2,6.4
				C535.1,631.3,532.8,632.2,530.2,632.2z M530.2,613.8c-2.5,0-4.6,0.8-6.4,2.5c-1.8,1.7-2.7,3.7-2.7,6.2c0,2.4,0.9,4.4,2.7,6.1
				c1.8,1.7,3.9,2.5,6.4,2.5c2.3,0,4.4-0.8,6.1-2.3c1.6-1.4,2.5-3.1,2.8-5.2h-11.1v0.6h10.2l-0.2,0.6c-0.4,1.6-1.4,3-2.9,4.1
				c-1.5,1-3.1,1.6-4.8,1.6c-2.3,0-4.3-0.8-5.9-2.3c-1.7-1.6-2.5-3.5-2.5-5.7c0-2.2,0.8-4.2,2.5-5.7c1.6-1.6,3.6-2.3,5.8-2.3
				c1.3,0,2.6,0.3,3.9,1c1.2,0.6,2.1,1.5,2.8,2.5h1c-0.2-0.3-0.4-0.6-0.7-0.9C535.3,614.8,533.1,613.8,530.2,613.8z"/>
		</g>
		<g id="XMLID_169_">
			<path id="XMLID_80_" class="st2" d="M573,631.4l-10.6-15.6h0v15.6h-1.8v-17.7h2.4l10,14.7h0v-14.7h1.8v17.7H573z"/>
			<path id="XMLID_166_" class="st2" d="M575.3,631.9h-2.6l-9.9-14.5v14.5H560v-18.7h3.2l9.3,13.7v-13.7h2.8V631.9z M573.3,630.9h1
				v-16.7h-0.8v14.7h-0.8l-0.2-0.2l-9.9-14.5H561v16.7h0.8v-15.6h0.8l0.2,0.2L573.3,630.9z"/>
		</g>
		<g id="XMLID_163_">
			<path id="XMLID_77_" class="st2" d="M596.3,631.4v-17.7h9.8v1.6h-8v6.4h7.7v1.6h-7.7v6.5h8v1.6H596.3z"/>
			<path id="XMLID_159_" class="st2" d="M606.6,631.9h-10.8v-18.7h10.8v2.6h-8v5.4h7.7v2.6h-7.7v5.5h8V631.9z M596.8,630.9h8.8v-0.6
				h-8v-7.5h7.7v-0.6h-7.7v-7.4h8v-0.6h-8.8V630.9z"/>
		</g>
		<g id="XMLID_155_">
			<path id="XMLID_74_" class="st2" d="M637.8,623.1c-1,1-2.3,1.5-3.8,1.6l5.1,6.6h-2.3l-6.1-8l1.9,0c0.8,0,1.5-0.1,1.9-0.3
				c2-0.6,3-1.8,3-3.8c0-1.6-0.7-2.7-2-3.4c-0.5-0.3-1.1-0.5-1.7-0.6c-0.5-0.1-1.1-0.1-1.8-0.1H629v16.1h-1.8v-17.7h4.6
				c0.4,0,0.8,0,1.1,0c0.4,0,0.8,0.1,1.1,0.1c0.9,0.1,1.6,0.3,2.2,0.6c2.1,1,3.2,2.7,3.2,5.1C639.3,620.9,638.8,622.1,637.8,623.1z"
				/>
			<path id="XMLID_130_" class="st2" d="M640.1,631.9h-3.5l-6.8-9l2.9,0c0.8,0,1.3-0.1,1.8-0.2c1.8-0.5,2.6-1.6,2.6-3.3
				c0-1.4-0.6-2.3-1.7-3c-0.5-0.2-1-0.4-1.5-0.5c-0.4-0.1-1-0.1-1.7-0.1h-2.6v16.1h-2.8v-18.7h5.1c0.4,0,0.8,0,1.1,0
				c0.4,0,0.8,0.1,1.2,0.1c0.9,0.1,1.7,0.3,2.3,0.6c2.3,1.1,3.5,3,3.5,5.5c0,1.6-0.6,3-1.7,4.1c-0.9,0.9-2,1.4-3.2,1.7L640.1,631.9z
				 M637.1,630.9h1l-5-6.5l0.9-0.1c1.4-0.1,2.5-0.6,3.5-1.5l0,0c0.9-0.9,1.4-2,1.4-3.4c0-2.2-1-3.7-2.9-4.6c-0.5-0.2-1.2-0.4-2-0.5
				c-0.3,0-0.7-0.1-1.1-0.1c-0.3,0-0.7,0-1.1,0h-4.1v16.7h0.8v-16.1h3.6c0.8,0,1.4,0,1.9,0.1c0.7,0.1,1.3,0.3,1.9,0.6
				c1.5,0.8,2.2,2.1,2.2,3.8c0,2.1-1.1,3.6-3.3,4.2c-0.5,0.2-1.2,0.3-2,0.3l-1,0L637.1,630.9z"/>
		</g>
	</g>
</g>
</svg>
