<svg id="Layer_1" data-name="Layer 1" xmlns="http://www.w3.org/2000/svg" viewBox="0 0 1830.28 638.46"><defs><style>.cls-1{fill:#fff;}.cls-2{fill:#fac42b;}</style></defs><title>logo minan white</title><path class="cls-1" d="M593.64,701.15v2.45H454.49v-2.45h26.24V191c0-3-.6-3-1.22-.61L317.18,703.6H276.9L102.36,190.34c-.62-1.83-1.84-1.22-1.84.61v510.2h64.69v2.45H59.63v-2.45H98.09V184.85H71.84v-2.44H218.31v2.44H192.07l148.3,436.36L478.3,184.85H454.49v-2.44H593.64v2.44H567.4v516.3Z" transform="translate(-59.63 -65.16)"/><rect class="cls-1" x="38.45" y="119.69" width="9.22" height="516.3"/><rect class="cls-1" x="390.47" y="171.46" width="9.22" height="530.01" transform="translate(90.93 -164.23) rotate(17.61)"/><path class="cls-1" d="M1053.27,182.41v2.44h-52.48V703.6H904.36l-224-513.26c-1.22-2.44-1.83-1.83-1.83,1.22V701.15h64.69v2.45H637.66v-2.45h38.45V184.85H649.87v-2.44H771.93l224,514.47c1.84,2.44,2.44,1.83,2.44-.61V184.85h-53.7v-2.44ZM997.74,689.56h2.43v1.22h-2.43Z" transform="translate(-59.63 -65.16)"/><path class="cls-1" d="M1441.4,701.16,1241.55,191l-3.39-8.65L1062.38,701.16h-39.67v2.46h108.66v-2.46h-65.94l73.23-216.63c1.86-4.92,3-10.43,6.1-11,.25-.09.42-.09.68-.17a169.1,169.1,0,0,1,35.34-4.07,146.31,146.31,0,0,1,92.81,33c4.24,4.24,7.88,10.93,9.74,16.44l71.37,182.48h-28.65v2.46h139.17v-2.46Zm-167.81-202c-22-17.12-51.87-32.38-92.81-32.38a161.36,161.36,0,0,0-34.16,3.65h-.17c-2.28.5-2.79-1.87-1.1-6.11l54.33-159.85,1.7,4.41,73.39,187.82C1276.64,501,1275.37,501,1273.59,499.19Z" transform="translate(-59.63 -65.16)"/><path class="cls-1" d="M1889.91,182.41v2.44h-52.48V703.6H1741L1517,190.34c-1.23-2.44-1.84-1.83-1.84,1.22V701.15h64.69v2.45H1474.3v-2.45h38.45V184.85h-26.24v-2.44h122.06l224,514.47c1.84,2.44,2.45,1.83,2.45-.61V184.85h-53.71v-2.44Zm-55.53,507.15h2.44v1.22h-2.44Z" transform="translate(-59.63 -65.16)"/><rect class="cls-1" x="612.41" y="118.62" width="9.22" height="517.67"/><rect class="cls-1" x="933.49" y="117.25" width="9.22" height="521.19"/><rect class="cls-1" x="1451.72" y="119.99" width="9.22" height="516.3"/><rect class="cls-1" x="1770.13" y="118.62" width="9.22" height="519.81"/><polygon class="cls-1" points="1007.4 638.46 1008.25 636 1085.8 408.18 1086.82 405.3 1141.74 243.75 1181.91 125.86 1178.53 117.21 1002.74 636 998.5 636 998.08 637.36 1001.3 638.46 1007.4 638.46"/><rect class="cls-2" x="507.12" width="105.29" height="105.29"/></svg>