<?xml version="1.0" encoding="utf-8"?>
<!-- Generator: Adobe Illustrator 22.0.0, SVG Export Plug-In . SVG Version: 6.00 Build 0)  -->
<svg version="1.1" id="Layer_1" xmlns="http://www.w3.org/2000/svg" xmlns:xlink="http://www.w3.org/1999/xlink" x="0px" y="0px"
	 viewBox="0 0 1920 903" style="enable-background:new 0 0 1920 903;" xml:space="preserve">
<style type="text/css">
	.st0{fill:#FFFFFF;}
	.st1{fill:#FAC42B;}
</style>
<g>
	<path class="st0" d="M593.6,701.2v2.4H454.5v-2.4h26.2V190.9c0-3.1-0.6-3.1-1.2-0.6L317.2,703.6h-40.3L102.4,190.3
		c-0.6-1.8-1.8-1.2-1.8,0.6v510.2h64.7v2.4H59.6v-2.4h38.5V184.8H71.8v-2.4h146.5v2.4h-26.2l148.3,436.4l137.9-436.4h-23.8v-2.4
		h139.1v2.4h-26.2v516.3H593.6z"/>
	<rect x="98.1" y="184.8" class="st0" width="9.2" height="516.3"/>
	
		<rect x="390.5" y="171.5" transform="matrix(0.9531 0.3025 -0.3025 0.9531 150.5638 -99.073)" class="st0" width="9.2" height="530"/>
</g>
<path class="st0" d="M1053.3,182.4v2.4h-52.5v518.7h-96.4l-224-513.3c-1.2-2.4-1.8-1.8-1.8,1.2v509.6h64.7v2.4H637.7v-2.4h38.5
	V184.8h-26.2v-2.4h122.1l224,514.5c1.8,2.4,2.4,1.8,2.4-0.6V184.8h-53.7v-2.4H1053.3z M997.7,689.6h2.4v1.2h-2.4V689.6z"/>
<path class="st0" d="M1441.4,701.2L1241.6,191l-3.4-8.6l-175.8,518.8h-39.7v2.5h108.7v-2.5h-65.9l73.2-216.6
	c1.9-4.9,3.1-10.4,6.1-11c0.3-0.1,0.4-0.1,0.7-0.2c11.4-2.4,22.8-4.1,35.3-4.1c34.2,0,66.5,11.6,92.8,33c4.2,4.2,7.9,10.9,9.7,16.4
	l71.4,182.5h-28.6v2.5h139.2v-2.5H1441.4z M1273.6,499.2c-22-17.1-51.9-32.4-92.8-32.4c-11.6,0-22.5,1.2-34.2,3.6
	c-0.1,0-0.1,0-0.2,0c-2.3,0.5-2.8-1.9-1.1-6.1l54.3-159.8l1.7,4.4l73.4,187.8C1276.6,501,1275.4,501,1273.6,499.2z"/>
<path class="st0" d="M1889.9,182.4v2.4h-52.5v518.7H1741l-224-513.3c-1.2-2.4-1.8-1.8-1.8,1.2v509.6h64.7v2.4h-105.6v-2.4h38.5
	V184.8h-26.2v-2.4h122.1l224,514.5c1.8,2.4,2.4,1.8,2.4-0.6V184.8h-53.7v-2.4H1889.9z M1834.4,689.6h2.4v1.2h-2.4V689.6z"/>
<rect x="672" y="183.8" class="st0" width="9.2" height="517.7"/>
<rect x="993.1" y="182.4" class="st0" width="9.2" height="521.2"/>
<rect x="1511.4" y="185.1" class="st0" width="9.2" height="516.3"/>
<rect x="1829.8" y="183.8" class="st0" width="9.2" height="519.8"/>
<polygon class="st0" points="1067,703.6 1067.9,701.2 1145.4,473.3 1146.5,470.5 1201.4,308.9 1241.5,191 1238.2,182.4 
	1062.4,701.2 1058.1,701.2 1057.7,702.5 1060.9,703.6 "/>
<rect x="566.8" y="117.8" class="st1" width="105.3" height="52.6"/>
</svg>
