<?xml version="1.0" encoding="utf-8"?>
<!-- Generator: Adobe Illustrator 19.0.0, SVG Export Plug-In . SVG Version: 6.00 Build 0)  -->
<svg version="1.1" id="Layer_1" xmlns="http://www.w3.org/2000/svg" xmlns:xlink="http://www.w3.org/1999/xlink" x="0px" y="0px"
	 viewBox="0 0 510.8 510.8" style="enable-background:new 0 0 510.8 510.8;" xml:space="preserve">
<style type="text/css">
	.st0{fill:#159E49;}
	.st1{fill-rule:evenodd;clip-rule:evenodd;fill:#FFFFFF;}
</style>
<g id="XMLID_35_">
	<circle id="XMLID_33_" class="st0" cx="255.4" cy="250.1" r="189.1"/>
	<path id="XMLID_36_" class="st1" d="M257.4,336.7c-12.1,0-24.1-2.4-35.2-7.1c-2.8-1.2-5.5-2.5-8.1-3.9c-1.2-0.7-2.4-1.3-3.5-2
		c-0.4-0.2-2.4-1.8-2.8-1.7c-1.4,0.4-2.7,0.9-4.1,1.3c-10.1,3.2-20.3,6.4-30.4,9.7c3.7-11,7.3-21.9,11-32.9c0.4-1.1-1.6-2.8-2.2-3.7
		c-1.9-2.9-3.7-5.9-5.3-9.1c-3.1-6.1-5.5-12.5-7.1-19.2c-3.2-13.3-3.2-27-0.2-40.3c4.8-21.6,17.9-40.9,35.9-53.6
		c18.6-13.1,41.9-18.7,64.4-15.6c22,3,42.5,14.4,56.8,31.4c14.8,17.6,22.2,40.4,20.7,63.4c-1.5,21.9-11.3,42.8-27.1,58
		c-15.9,15.4-37.2,24.5-59.3,25.3C259.7,336.7,258.6,336.7,257.4,336.7z M306.6,268.7c-3.6-1.7-7.1-3.5-10.7-5.2
		c-2.9-1.4-7.2-4.4-10.6-4c-2.1,0.3-3.3,2.9-4.5,4.5c-1.6,2.1-3.4,4.1-5.1,6.1c-1.3,1.5-2.7,3.4-5,3c-1.7-0.3-3.4-1.3-5-2
		c-11.3-4.9-21-13-28.4-22.9c-2.1-2.8-6.9-7.9-4.2-11.4c3.2-4,9.6-8.6,7.1-14.3c-1.5-3.6-2.9-7.1-4.4-10.7c-0.9-2.2-1.8-4.3-2.7-6.5
		c-0.9-2.1-1.7-4.9-3.7-6.1c-1.3-0.8-3.2-0.4-4.6-0.4c-3.1-0.2-5.9-0.4-8.6,1.5c-2.9,2-5.6,5.4-7.3,8.4c-10,16.9,1.4,35,11.7,48.6
		c5.8,7.6,12.4,14.7,19.8,20.6c9.9,7.9,21.1,12.7,33.1,16.6c4.9,1.6,10.6,3.6,15.8,2.5c1.6-0.3,3.2-0.5,4.7-0.9
		c4.9-1.2,9.8-4.2,13.2-7.9c3.1-3.3,4.3-7.9,4.6-12.4c0.1-1.3,0.3-2.9-0.3-4.2C311,270.2,308,269.4,306.6,268.7z M364.6,244.6
		c-1.1-44.7-31.3-84.7-73.8-98.4c-43.2-14-91.9,1.1-119.2,37.4c-13.4,17.8-21,39.8-21.3,62.1c-0.2,14.3,2.5,28.5,7.9,41.7
		c1.3,3.1,2.7,6.1,4.2,9.1c0.5,1,3.5,5,3.2,5.9c-0.4,1.3-0.9,2.6-1.3,3.9c-6,17.7-12,35.3-18,53c10.7-3.4,21.4-6.8,32.1-10.2
		c6.9-2.2,13.7-4.3,20.6-6.5c1.9-0.6,3.8-1.2,5.7-1.8c0.3-0.1,0.7-0.2,1-0.3s1.9,1,2.3,1.2c1.7,0.9,3.5,1.7,5.3,2.6
		c44.4,19.9,98.2,7,128.5-31c7.4-9.3,13.2-19.8,17.2-31C363.1,269.8,364.6,257.5,364.6,244.6z"/>
</g>
</svg>
