<?xml version="1.0" encoding="utf-8"?>
<!-- Generator: Adobe Illustrator 19.0.0, SVG Export Plug-In . SVG Version: 6.00 Build 0)  -->
<svg version="1.1" id="Layer_1" xmlns="http://www.w3.org/2000/svg" xmlns:xlink="http://www.w3.org/1999/xlink" x="0px" y="0px"
	 viewBox="0 0 510.8 510.8" style="enable-background:new 0 0 510.8 510.8;" xml:space="preserve">
<style type="text/css">
	.st0{fill:#E42F28;}
	.st1{fill:#FFFFFF;}
</style>
<g id="XMLID_37_">
	<path id="XMLID_3_" class="st0" d="M446,250.1c0,104.4-84.7,189.1-189.1,189.1c-104.4,0-189.1-84.7-189.1-189.1
		C67.8,145.7,152.5,61,256.9,61C361.4,61,446,145.7,446,250.1z"/>
	<path id="XMLID_40_" class="st1" d="M256.9,333.9c-0.6,0-59.3-0.6-77.4-2.4c-0.9-0.2-1.9-0.3-3-0.4c-5.6-0.7-15-1.9-22.3-9.8
		c-6.8-7.2-9-23.1-9.1-23.7c-0.1-0.8-2.3-19.8-2.3-38.5v-18c0-18.8,2.2-37.6,2.3-38.4c0.1-0.7,2.3-16.6,9.1-23.8
		c7.9-8.6,16.8-9.5,21.6-10l1.4-0.2c31.5-2.4,79.2-2.4,79.6-2.4c0.5,0,48.2,0,79.7,2.4l1.5,0.2c4.8,0.5,13.7,1.4,21.6,10
		c6.8,7.2,9,23.1,9.1,23.7c0.1,0.8,2.3,19.8,2.3,38.5v18c0,18.7-2.2,37.6-2.3,38.4c-0.1,0.7-2.3,16.6-9.1,23.7
		c-7.9,8.6-16.8,9.5-21.6,10l-1.4,0.2C305.3,333.7,257.4,333.9,256.9,333.9L256.9,333.9z M233.8,285.9l66-38.2l-66-38.5L233.8,285.9
		z"/>
</g>
</svg>
